<svg xmlns="http://www.w3.org/2000/svg" viewBox="0 0 304 235">
  <defs>
    <style>
      .cls-1{fill:none}.cls-2{isolation:isolate}.cls-3{opacity:.6}.cls-4{fill:#3e5fc2}.cls-5{clip-path:url(#clip-path)}.cls-6{fill:#88898c}.cls-7{fill:#9e9e9e}.cls-7,.cls-8{opacity:.4}.cls-11,.cls-8,.cls-9{fill:#808285;mix-blend-mode:multiply}.cls-9{opacity:.15}.cls-10{fill:#989899}.cls-11{opacity:.1}
    </style>
    <clipPath id="clip-path">
      <path class="cls-1" d="M185.66 73.81h-.47a38.61 38.61 0 0 1-23-7.53 66.53 66.53 0 0 0-39.36-12.58C88.13 53.7 60 79.24 60 110.75s28.13 57.05 62.83 57.05a68.07 68.07 0 0 0 8.38-.51 186.78 186.78 0 0 1 45.57 0 71.89 71.89 0 0 0 8.88.55c32.13 0 58.17-21 58.17-47s-26.04-47.03-58.17-47.03z"/>
    </clipPath>
  </defs>
  <g class="cls-2">
    <g id="Layer_2" data-name="Layer 2">
      <g id="Text_and_Image" data-name="Text and Image">
        <path class="cls-4" d="M185.66 73.81h-.47a38.61 38.61 0 0 1-23-7.53 66.53 66.53 0 0 0-39.36-12.58C88.13 53.7 60 79.24 60 110.75s28.13 57.05 62.83 57.05a68.07 68.07 0 0 0 8.38-.51 186.78 186.78 0 0 1 45.57 0 71.89 71.89 0 0 0 8.88.55c32.13 0 58.17-21 58.17-47s-26.04-47.03-58.17-47.03z"/>
        <g class="cls-5">
          <path class="cls-6" d="M185.66 73.81h-.47a38.61 38.61 0 0 1-23-7.53 66.53 66.53 0 0 0-39.36-12.58C88.13 53.7 60 79.24 60 110.75s28.13 57.05 62.83 57.05a68.07 68.07 0 0 0 8.38-.51 186.78 186.78 0 0 1 45.57 0 71.89 71.89 0 0 0 8.88.55c32.13 0 58.17-21 58.17-47s-26.04-47.03-58.17-47.03z"/>
          <path class="cls-7" d="M98 50.78S90.12 66 101.18 73.6s25.85 5.7 31.1 20.28 26.44 18.7 47 6.66 55-4.31 75.24 10.21-38.88-52.37-38.88-52.37z"/>
          <path class="cls-8" d="M108.39 65.09c-4 0-7.51 1.66-9.35 4.13a12.58 12.58 0 0 1 7.65-2.42c5.94 0 10.75 3.63 10.75 8.11a6.59 6.59 0 0 1-1.39 4 7.22 7.22 0 0 0 3.09-5.69c0-4.5-4.81-8.13-10.75-8.13zM233.68 126.87c0-3.05-3.47-5.52-7.74-5.52-3.14 0-5.83 1.33-7.05 3.24a9.61 9.61 0 0 1 5.34-1.53c4.28 0 7.75 2.47 7.75 5.52a4.21 4.21 0 0 1-.7 2.27 4.9 4.9 0 0 0 2.4-3.98z"/>
          <path class="cls-9" d="M106.69 66.8A12.58 12.58 0 0 0 99 69.22a7.21 7.21 0 0 0-3.1 5.69c0 4.48 4.81 8.11 10.75 8.11 4 0 7.51-1.66 9.36-4.13a6.59 6.59 0 0 0 1.39-4c.04-4.46-4.77-8.09-10.71-8.09zM224.23 123.06a9.61 9.61 0 0 0-5.34 1.53 4.93 4.93 0 0 0-2.4 4c0 3 3.47 5.51 7.74 5.51 3.14 0 5.83-1.33 7.05-3.24a4.21 4.21 0 0 0 .7-2.27c.02-3.06-3.47-5.53-7.75-5.53z"/>
          <path class="cls-8" d="M128.47 139.35c-4.69 0-8.78 1.92-11 4.79a15 15 0 0 1 9.35-3.08c7.15 0 13 4.47 13 10a8.3 8.3 0 0 1-1.91 5.19 8.91 8.91 0 0 0 3.61-6.9c-.09-5.53-5.89-10-13.05-10z"/>
          <path class="cls-9" d="M126.77 141.06a15 15 0 0 0-9.35 3.08 8.89 8.89 0 0 0-3.62 6.9c0 5.51 5.81 10 13 10 4.68 0 8.77-1.92 11-4.79a8.3 8.3 0 0 0 1.91-5.19c.02-5.53-5.79-10-12.94-10z"/>
          <path class="cls-10" d="M115.51 149.33a8.28 8.28 0 0 1 1.91-5.19 8.89 8.89 0 0 0-3.62 6.9c0 5.51 5.81 10 13 10 4.68 0 8.77-1.92 11-4.79a15 15 0 0 1-9.35 3.08c-7.14-.02-12.94-4.49-12.94-10zM97.65 73.2a6.59 6.59 0 0 1 1.39-4 7.21 7.21 0 0 0-3.1 5.69c0 4.48 4.81 8.11 10.75 8.11 4 0 7.51-1.66 9.36-4.13a12.61 12.61 0 0 1-7.66 2.42c-5.93.02-10.74-3.61-10.74-8.09z"/>
          <path class="cls-8" d="M97.81 136.16a5.43 5.43 0 0 0-4.34 1.91A5.89 5.89 0 0 1 97 137c2.75 0 5 1.68 5 3.76a3 3 0 0 1-.65 1.84 3.35 3.35 0 0 0 1.44-2.64c0-2.12-2.23-3.8-4.98-3.8z"/>
          <path class="cls-9" d="M97 137a5.89 5.89 0 0 0-3.55 1.12 3.37 3.37 0 0 0-1.45 2.59c0 2.07 2.23 3.75 5 3.75a5.39 5.39 0 0 0 4.33-1.91 3 3 0 0 0 .65-1.84C102 138.63 99.77 137 97 137z"/>
          <path class="cls-10" d="M92.83 139.91a3 3 0 0 1 .64-1.84 3.37 3.37 0 0 0-1.47 2.64c0 2.07 2.23 3.75 5 3.75a5.39 5.39 0 0 0 4.33-1.91 5.86 5.86 0 0 1-3.54 1.12c-2.73 0-4.96-1.67-4.96-3.76z"/>
          <path class="cls-8" d="M145.19 70a4.68 4.68 0 0 0-3.76 1.66 5.07 5.07 0 0 1 3.07-1c2.39 0 4.32 1.46 4.32 3.26a2.68 2.68 0 0 1-.56 1.6 2.89 2.89 0 0 0 1.24-2.28c0-1.78-1.93-3.24-4.31-3.24z"/>
          <path class="cls-9" d="M144.5 70.68a5.07 5.07 0 0 0-3.07 1 2.88 2.88 0 0 0-1.24 2.28c0 1.8 1.93 3.26 4.31 3.26a4.69 4.69 0 0 0 3.76-1.66 2.68 2.68 0 0 0 .56-1.6c0-1.82-1.93-3.28-4.32-3.28z"/>
          <path class="cls-10" d="M140.87 73.26a2.66 2.66 0 0 1 .56-1.6 2.88 2.88 0 0 0-1.24 2.28c0 1.8 1.93 3.26 4.31 3.26a4.69 4.69 0 0 0 3.76-1.66 5.06 5.06 0 0 1-3.07 1c-2.39-.03-4.32-1.49-4.32-3.28zM218.19 126.87a4.19 4.19 0 0 1 .7-2.28 4.93 4.93 0 0 0-2.4 4c0 3 3.47 5.51 7.74 5.51 3.14 0 5.83-1.33 7.05-3.24a9.53 9.53 0 0 1-5.34 1.53c-4.28-.01-7.75-2.48-7.75-5.52z"/>
          <path class="cls-8" d="M136.46 68.11c0-2.09-2.37-3.77-5.3-3.77a5.72 5.72 0 0 0-4.82 2.21 6.53 6.53 0 0 1 3.66-1c2.92 0 5.29 1.69 5.29 3.77a2.88 2.88 0 0 1-.47 1.56 3.36 3.36 0 0 0 1.64-2.77z"/>
          <path class="cls-9" d="M130 65.5a6.53 6.53 0 0 0-3.66 1 3.36 3.36 0 0 0-1.64 2.72c0 2.09 2.37 3.77 5.3 3.77a5.68 5.68 0 0 0 4.82-2.21 2.88 2.88 0 0 0 .47-1.56c0-2.03-2.37-3.72-5.29-3.72z"/>
          <path class="cls-10" d="M125.87 68.11a2.91 2.91 0 0 1 .47-1.56 3.36 3.36 0 0 0-1.64 2.72c0 2.09 2.37 3.77 5.3 3.77a5.68 5.68 0 0 0 4.82-2.21 6.53 6.53 0 0 1-3.66 1c-2.92.05-5.29-1.64-5.29-3.72z"/>
          <path class="cls-8" d="M185.3 148.23c0-2.08-2.37-3.77-5.3-3.77a5.67 5.67 0 0 0-4.81 2.22 6.5 6.5 0 0 1 3.65-1.05c2.92 0 5.3 1.69 5.3 3.77a2.92 2.92 0 0 1-.48 1.56 3.36 3.36 0 0 0 1.64-2.73z"/>
          <path class="cls-9" d="M178.84 145.63a6.5 6.5 0 0 0-3.65 1.05 3.36 3.36 0 0 0-1.65 2.72c0 2.08 2.37 3.77 5.3 3.77a5.71 5.71 0 0 0 4.82-2.21 2.92 2.92 0 0 0 .48-1.56c0-2.08-2.38-3.77-5.3-3.77z"/>
          <path class="cls-10" d="M174.71 148.23a2.8 2.8 0 0 1 .48-1.55 3.36 3.36 0 0 0-1.65 2.72c0 2.08 2.37 3.77 5.3 3.77a5.71 5.71 0 0 0 4.82-2.21 6.61 6.61 0 0 1-3.66 1c-2.92.04-5.29-1.64-5.29-3.73z"/>
          <path class="cls-11" d="M77.69 71.07s-.14.75-.3 2.06c-1.12 9.22-3.24 46.35 34.54 48 43.15 1.9 56.43-2.85 79.19 13.31s46.94 1.43 58.32-8.08-10.43 58-10.43 58L58.35 177.2 47 84.53"/>
        </g>
      </g>
    </g>
  </g>
</svg>
