<svg xmlns="http://www.w3.org/2000/svg" viewBox="0 0 289 259">
  <defs>
    <style>
      .cls-1{fill:none}.cls-2{isolation:isolate}.cls-3{opacity:.6}.cls-4{fill:#3e5fc2}.cls-5{clip-path:url(#clip-path)}.cls-6{fill:#88898c}.cls-7{fill:#9e9e9e}.cls-7,.cls-8{opacity:.4}.cls-11,.cls-8,.cls-9{fill:#808285;mix-blend-mode:multiply}.cls-9{opacity:.15}.cls-10{fill:#989899}.cls-11{opacity:.1}
    </style>
    <clipPath id="clip-path">
      <path class="cls-1" d="M76 113.3a275.57 275.57 0 0 0 38.16-38.51 57.09 57.09 0 0 1 14.5-12.9c29.16-18.17 68.9-7 88.77 25s12.34 72.65-16.83 90.82a57.86 57.86 0 0 1-31.72 8.69c-14.42-.24-28.77 1.57-42.92 4.37A62.92 62.92 0 0 1 113.8 192C84.08 192 60 171.39 60 146c0-12.79 6.12-24.37 16-32.7z"/>
    </clipPath>
  </defs>
  <g class="cls-2">
    <g id="Layer_2" data-name="Layer 2">
      <g id="Text_and_Image" data-name="Text and Image">
        <path class="cls-4" d="M76 113.3a275.57 275.57 0 0 0 38.16-38.51 57.09 57.09 0 0 1 14.5-12.9c29.16-18.17 68.9-7 88.77 25s12.34 72.65-16.83 90.82a57.86 57.86 0 0 1-31.72 8.69c-14.42-.24-28.77 1.57-42.92 4.37A62.92 62.92 0 0 1 113.8 192C84.08 192 60 171.39 60 146c0-12.79 6.12-24.37 16-32.7z"/>
        <g class="cls-5">
          <path class="cls-6" d="M76 113.3a275.57 275.57 0 0 0 38.16-38.51 57.09 57.09 0 0 1 14.5-12.9c29.16-18.17 68.9-7 88.77 25s12.34 72.65-16.83 90.82a57.86 57.86 0 0 1-31.72 8.69c-14.42-.24-28.77 1.57-42.92 4.37A62.92 62.92 0 0 1 113.8 192C84.08 192 60 171.39 60 146c0-12.79 6.12-24.37 16-32.7z"/>
          <path class="cls-7" d="M192.29 48.37s5.92 70.68-57.25 60.8-18.76 48.44-95.75 44 72.06-155.71 153-104.8z"/>
          <path class="cls-8" d="M174.62 76.38c4.87 0 9.13 2 11.5 5a15.58 15.58 0 0 0-9.73-3.2c-7.45 0-13.49 4.65-13.49 10.38a8.62 8.62 0 0 0 2 5.39 9.22 9.22 0 0 1-3.76-7.17c-.01-5.78 6.03-10.4 13.48-10.4z"/>
          <path class="cls-9" d="M176.39 78.15a15.58 15.58 0 0 1 9.73 3.2 9.25 9.25 0 0 1 3.76 7.18c0 5.73-6 10.37-13.49 10.37-4.87 0-9.13-2-11.5-5a8.62 8.62 0 0 1-2-5.39c.01-5.71 6.05-10.36 13.5-10.36z"/>
          <path class="cls-10" d="M188.11 86.75a8.67 8.67 0 0 0-2-5.4 9.25 9.25 0 0 1 3.76 7.18c0 5.73-6 10.37-13.49 10.37-4.87 0-9.13-2-11.5-5a15.59 15.59 0 0 0 9.73 3.21c7.46.02 13.5-4.63 13.5-10.36z"/>
          <path class="cls-8" d="M174.65 153c4.18 0 7.81 1.73 9.73 4.29a13.14 13.14 0 0 0-8-2.51c-6.18 0-11.19 3.77-11.19 8.43a6.83 6.83 0 0 0 1.45 4.14 7.51 7.51 0 0 1-3.22-5.91c.04-4.64 5.05-8.44 11.23-8.44z"/>
          <path class="cls-9" d="M176.42 154.8a13.14 13.14 0 0 1 8 2.51 7.5 7.5 0 0 1 3.23 5.92c0 4.66-5 8.44-11.19 8.44-4.18 0-7.82-1.74-9.74-4.3a6.83 6.83 0 0 1-1.45-4.14c-.04-4.66 4.97-8.43 11.15-8.43z"/>
          <path class="cls-10" d="M185.83 161.46a6.88 6.88 0 0 0-1.45-4.15 7.5 7.5 0 0 1 3.23 5.92c0 4.66-5 8.44-11.19 8.44-4.18 0-7.82-1.74-9.74-4.3a13.13 13.13 0 0 0 8 2.52c6.15 0 11.15-3.78 11.15-8.43z"/>
          <path class="cls-8" d="M99.44 158.91a5.61 5.61 0 0 1 4.51 2 6.09 6.09 0 0 0-3.69-1.17c-2.86 0-5.18 1.75-5.18 3.91a3.22 3.22 0 0 0 .67 1.92 3.47 3.47 0 0 1-1.49-2.74c0-2.17 2.32-3.92 5.18-3.92z"/>
          <path class="cls-9" d="M100.26 159.73a6.09 6.09 0 0 1 3.74 1.17 3.47 3.47 0 0 1 1.5 2.74c0 2.16-2.32 3.91-5.19 3.91a5.63 5.63 0 0 1-4.51-2 3.22 3.22 0 0 1-.67-1.92c-.05-2.15 2.27-3.9 5.13-3.9z"/>
          <path class="cls-10" d="M104.63 162.82a3.17 3.17 0 0 0-.68-1.92 3.47 3.47 0 0 1 1.5 2.74c0 2.16-2.32 3.91-5.19 3.91a5.63 5.63 0 0 1-4.51-2 6.11 6.11 0 0 0 3.69 1.17c2.87.01 5.19-1.72 5.19-3.9z"/>
          <path class="cls-8" d="M135.32 81.84c0-3.17 3.61-5.74 8.06-5.74 3.26 0 6.07 1.39 7.33 3.37a10 10 0 0 0-5.56-1.59c-4.45 0-8.06 2.57-8.06 5.73a4.37 4.37 0 0 0 .72 2.37 5.11 5.11 0 0 1-2.49-4.14z"/>
          <path class="cls-9" d="M145.15 77.88a10 10 0 0 1 5.56 1.59 5.1 5.1 0 0 1 2.5 4.14c0 3.17-3.61 5.74-8.06 5.74-3.26 0-6.07-1.39-7.34-3.37a4.37 4.37 0 0 1-.72-2.37c0-3.16 3.61-5.73 8.06-5.73z"/>
          <path class="cls-10" d="M151.44 81.84a4.3 4.3 0 0 0-.73-2.37 5.1 5.1 0 0 1 2.5 4.14c0 3.17-3.61 5.74-8.06 5.74-3.26 0-6.07-1.39-7.34-3.37a10 10 0 0 0 5.57 1.59c4.45 0 8.06-2.57 8.06-5.73z"/>
          <path class="cls-8" d="M136.9 159.57c0-2.16 2.47-3.92 5.51-3.92a6 6 0 0 1 5 2.3 6.84 6.84 0 0 0-3.81-1.08c-3 0-5.51 1.75-5.51 3.92a2.94 2.94 0 0 0 .5 1.61 3.46 3.46 0 0 1-1.69-2.83z"/>
          <path class="cls-9" d="M143.62 156.87a6.84 6.84 0 0 1 3.81 1.08 3.5 3.5 0 0 1 1.7 2.84c0 2.16-2.46 3.92-5.51 3.92a5.91 5.91 0 0 1-5-2.31 2.94 2.94 0 0 1-.5-1.61c-.01-2.17 2.46-3.92 5.5-3.92z"/>
          <path class="cls-10" d="M147.92 159.57a3 3 0 0 0-.49-1.62 3.5 3.5 0 0 1 1.7 2.84c0 2.16-2.46 3.92-5.51 3.92a5.91 5.91 0 0 1-5-2.31 6.71 6.71 0 0 0 3.8 1.09c3.03 0 5.5-1.75 5.5-3.92z"/>
          <path class="cls-11" d="M214.63 82.72S212 143.15 176.49 138s-43.92 3.77-56.26 23.54-58.73 8.4-70.58-3l23.69 45.16h168.3L237.2 86.8z"/>
        </g>
      </g>
    </g>
  </g>
</svg>
