<svg xmlns="http://www.w3.org/2000/svg" viewBox="0 0 170.78 174.26">
  <defs>
    <style>
      .cls-1,.cls-10,.cls-11,.cls-14,.cls-19,.cls-25,.cls-26,.cls-31,.cls-32,.cls-6{fill:none}.cls-2{isolation:isolate}.cls-3{fill:url(#linear-gradient)}.cls-4{fill:#ccd2dc}.cls-5{opacity:.25}.cls-24,.cls-5{mix-blend-mode:multiply}.cls-6{stroke:#fff;stroke-width:17.7px}.cls-10,.cls-11,.cls-19,.cls-31,.cls-6{stroke-linejoin:round}.cls-7{fill:#afb5bd}.cls-8{fill:#e5ecf7}.cls-30,.cls-9{fill:#fff}.cls-10,.cls-25{stroke:#e5ecf7}.cls-10,.cls-31{stroke-width:12.24px}.cls-11{stroke:#ff7d17;stroke-width:12.14px;stroke-dasharray:2.07 31.89}.cls-12{fill:#d96300}.cls-13{fill:#ff7d17}.cls-14,.cls-31,.cls-32{stroke:#afb5bd}.cls-14,.cls-19,.cls-25,.cls-26{stroke-linecap:round}.cls-14,.cls-25,.cls-26,.cls-32{stroke-miterlimit:10}.cls-14,.cls-25{stroke-width:4.29px}.cls-15{fill:#606060}.cls-16{opacity:.6}.cls-17{clip-path:url(#clip-path)}.cls-18{fill:#a67c52}.cls-19{stroke:#8c6239;stroke-width:.76px}.cls-20{fill:#42210b}.cls-21{fill:#4e342e}.cls-22{fill:url(#linear-gradient-2)}.cls-23{mask:url(#mask)}.cls-24{fill:#333;opacity:.2}.cls-26{stroke:#b5bac3;stroke-width:1.72px}.cls-27{fill:#94c6f0}.cls-28{fill:red}.cls-29{fill:#009}.cls-30{fill-rule:evenodd}.cls-32{stroke-width:.86px}.cls-33{filter:url(#luminosity-invert)}
    </style>
    <linearGradient id="linear-gradient" x1="-1156.48" y1="1160.15" x2="-1307.87" y2="1160.15" gradientTransform="rotate(37 964.11 2735.73)" gradientUnits="userSpaceOnUse">
      <stop offset=".56" stop-color="#fff" stop-opacity="0"/>
      <stop offset="1" stop-color="#fff" stop-opacity=".3"/>
    </linearGradient>
    <clipPath id="clip-path">
      <path class="cls-1" d="M95.39 37.09a30 30 0 0 0-6.92-17.77A51.88 51.88 0 0 0 65.4 14.1a52.08 52.08 0 0 0-23 5.2 30 30 0 0 0-1.44 36.64 51.55 51.55 0 0 0 24.48 6A51.54 51.54 0 0 0 89.85 56a29.81 29.81 0 0 0 5.54-18.91z"/>
    </clipPath>
    <linearGradient id="linear-gradient-2" x1="36.24" y1="38" x2="94.57" y2="38" gradientUnits="userSpaceOnUse">
      <stop offset="0" stop-color="#cbdade" stop-opacity="0"/>
      <stop offset=".1" stop-color="#cbdade" stop-opacity=".04"/>
      <stop offset=".26" stop-color="#cbdade" stop-opacity=".14"/>
      <stop offset=".47" stop-color="#cbdade" stop-opacity=".32"/>
      <stop offset=".71" stop-color="#cbdade" stop-opacity=".56"/>
      <stop offset=".97" stop-color="#cbdade" stop-opacity=".86"/>
      <stop offset="1" stop-color="#cbdade" stop-opacity=".9"/>
    </linearGradient>
    <filter id="luminosity-invert" filterUnits="userSpaceOnUse" color-interpolation-filters="sRGB">
      <feColorMatrix values="-1 0 0 0 1 0 -1 0 0 1 0 0 -1 0 1 0 0 0 1 0"/>
    </filter>
    <mask id="mask" x="32.8" y="12" width="65" height="52" maskUnits="userSpaceOnUse">
      <g class="cls-33"/>
    </mask>
  </defs>
  <g class="cls-2">
    <g id="Layer_2" data-name="Layer 2">
      <g id="Text_and_video" data-name="Text and video">
        <path class="cls-3" d="M170.78 132.19l-74.15-28-4.83 6.38 47.2 63.69a85.42 85.42 0 0 0 19-18.65 85.36 85.36 0 0 0 12.78-23.42z"/>
        <path class="cls-4" d="M89.73 69.5h8.82a7.23 7.23 0 0 1 7.23 7.23v33.9a7.23 7.23 0 0 1-7.23 7.23h-8.82V69.5z"/>
        <path class="cls-5" d="M89.73 69.5h8.82a7.23 7.23 0 0 1 7.23 7.23v33.9a7.23 7.23 0 0 1-7.23 7.23h-8.82V69.5z"/>
        <path class="cls-6" d="M84.32 105.87l-1.88 27.12 11.51 9.93"/>
        <path class="cls-7" d="M93.41 163.37L95 165a1.28 1.28 0 0 0 1.82 0l15.75-15.49a1.29 1.29 0 0 0 0-1.83l-1.57-1.62z"/>
        <path class="cls-8" d="M105.17 140.59c-1.52-1.31-4.09-3.35-6.19-5L86.3 147.94c2.09 2 4.15 3.83 6.25 5.48 0 0-3.33 5.68.89 10L111 146.09s-4.31-4.19-5.83-5.5z"/>
        <path class="cls-6" d="M57.83 111.65l-1.89 27.12 11.21 11.51"/>
        <path class="cls-9" d="M56.2 118.11h27.86v6.92H56.2z"/>
        <path class="cls-7" d="M66.62 170.72l1.63 1.65a1.28 1.28 0 0 0 1.82 0l15.75-15.5a1.28 1.28 0 0 0 0-1.82l-1.62-1.65z"/>
        <path class="cls-8" d="M78.38 148c-1.52-1.31-4.09-3.35-6.19-5l-12.68 12.29c2.09 2 4.15 3.83 6.25 5.48 0 0-3.33 5.69.89 10l17.58-17.31s-4.33-4.21-5.85-5.46z"/>
        <path class="cls-10" d="M92.61 111.47l16.56-15.55-19.69-15.85a7.9 7.9 0 0 0-6.06-2.82H57.33a7.9 7.9 0 0 0-6.15 2.94L26 93.12 12.37 77.76"/>
        <path class="cls-11" d="M92.61 111.47l16.56-15.55-19.69-15.85a7.9 7.9 0 0 0-6.06-2.82H57.33a7.9 7.9 0 0 0-6.15 2.94L26 93.12 12.37 77.76"/>
        <path class="cls-7" d="M26.67 27.61h5.75a4 4 0 0 1 4 4v13.94a4 4 0 0 1-4 4h-5.75V27.61z" transform="rotate(180 31.54 38.58)"/>
        <circle class="cls-12" cx="30.82" cy="34.36" r="2.15"/>
        <circle class="cls-12" cx="30.82" cy="42.8" r="2.15"/>
        <circle class="cls-13" cx="30.82" cy="34.36" r="1.29"/>
        <circle class="cls-13" cx="30.82" cy="42.8" r="1.29"/>
        <path class="cls-9" d="M60.91 56.38c0-.32 19-.05 19-.05s-.07.08 0 .05c1.19 1.16 12.84 7.95 12.84 7.95l-.12 50.77-44.16-.26-.55-50.42s11.8-6.88 12.99-8.04z"/>
        <path class="cls-8" d="M60.21 71.2h8.59v43.41h-8.59z"/>
        <circle class="cls-9" cx="69.74" cy="38.54" r="38.51"/>
        <path class="cls-14" d="M92.53 71.76a52.74 52.74 0 0 1-22.79 5 53.06 53.06 0 0 1-21.83-4.55"/>
        <path class="cls-15" d="M95.39 37.09a30 30 0 0 0-6.92-17.77A51.88 51.88 0 0 0 65.4 14.1a52.08 52.08 0 0 0-23 5.2 30 30 0 0 0-1.44 36.64 51.55 51.55 0 0 0 24.48 6A51.54 51.54 0 0 0 89.85 56a29.81 29.81 0 0 0 5.54-18.91z"/>
        <g class="cls-16">
          <g class="cls-17">
            <circle class="cls-18" cx="69.38" cy="41.96" r="26.36"/>
            <path class="cls-19" d="M60.89 55.48s4.52 3.49 9 0"/>
            <path class="cls-20" d="M60.06 37.38c-.87 0-1.79-.05-2.69 0s-1.82.09-2.72.18a23.78 23.78 0 0 0-5.26 1.11l-.51-1.34a24.86 24.86 0 0 1 5.57-1.4c.94-.14 1.88-.24 2.83-.3s1.88-.1 2.87-.09zM70.87 35.26a21.09 21.09 0 0 1 2.63 0c.87 0 1.73.1 2.59.21a23.48 23.48 0 0 1 5.06 1.22L80.67 38a21.34 21.34 0 0 0-4.76-.93C75.1 37 74.29 37 73.47 37a20.94 20.94 0 0 0-2.4.13z"/>
            <circle class="cls-9" cx="55.08" cy="44.85" r="4.3"/>
            <path class="cls-21" d="M51.24 46a2.3 2.3 0 1 1 2.4 2.5 2.47 2.47 0 0 1-2.4-2.5z"/>
            <circle class="cls-9" cx="75.01" cy="43.89" r="4.3"/>
            <path class="cls-21" d="M71.17 45a2.3 2.3 0 1 1 2.41 2.51A2.47 2.47 0 0 1 71.17 45z"/>
            <path class="cls-19" d="M64.63 40.55l-1.18 7.34s-2.86-.41-3.15 1.62 3.7 1.63 3.7 1.63"/>
            <path class="cls-20" d="M95.81 41.49c0-4.11-.93-13.58-8.32-19.86-3.91-3.65-9.65-6.25-18.09-6C61 15.35 55.22 18 51.31 21.6 43.92 27.88 43 37.35 43 41.46v.84c0 .73.31 3.7.31 3.7l1.87-.34S45 34 48.57 27c1.23-2.44 2.74-2.81 6.33-2.36A44.24 44.24 0 0 0 66.8 26a47 47 0 0 0 12.29-1.29c3.59-.45 5.7-.43 6.82 2.07a40.75 40.75 0 0 1 3.39 19l6.19.33s.29-3 .31-3.7v-.84z"/>
            <ellipse class="cls-18" cx="93.15" cy="48.33" rx="5.66" ry="4.67" transform="rotate(-71.25 93.148 48.331)"/>
            <ellipse class="cls-18" cx="45.89" cy="48.52" rx="4.67" ry="5.66" transform="rotate(-9.19 45.879 48.519)"/>
          </g>
        </g>
        <path class="cls-22" d="M65.4 61a50.66 50.66 0 0 1-23.9-5.75A29.18 29.18 0 0 1 42.91 20a51.21 51.21 0 0 1 22.49-5 51.25 51.25 0 0 1 22.53 5 29.19 29.19 0 0 1 1.34 35.3A50.67 50.67 0 0 1 65.4 61z"/>
        <path class="cls-15" d="M65.4 15.82a50.41 50.41 0 0 1 22 4.88 28.32 28.32 0 0 1 1.3 33.94 49.86 49.86 0 0 1-23.3 5.53 49.85 49.85 0 0 1-23.31-5.55 28.33 28.33 0 0 1 1.36-33.94 50.44 50.44 0 0 1 22-4.86m0-1.72a52.08 52.08 0 0 0-23 5.2 30 30 0 0 0-1.44 36.64 51.55 51.55 0 0 0 24.48 6A51.54 51.54 0 0 0 89.85 56a30 30 0 0 0-1.38-36.64A51.88 51.88 0 0 0 65.4 14.1z"/>
        <g class="cls-23">
          <path class="cls-15" d="M65.4 61a50.66 50.66 0 0 1-23.9-5.75A29.18 29.18 0 0 1 42.91 20a51.21 51.21 0 0 1 22.49-5 51.25 51.25 0 0 1 22.53 5 29.19 29.19 0 0 1 1.34 35.3A50.67 50.67 0 0 1 65.4 61z"/>
          <path class="cls-15" d="M65.4 15.82a50.41 50.41 0 0 1 22 4.88 28.32 28.32 0 0 1 1.3 33.94 49.86 49.86 0 0 1-23.3 5.53 49.85 49.85 0 0 1-23.31-5.55 28.33 28.33 0 0 1 1.36-33.94 50.44 50.44 0 0 1 22-4.86m0-1.72a52.08 52.08 0 0 0-23 5.2 30 30 0 0 0-1.44 36.64 51.55 51.55 0 0 0 24.48 6A51.54 51.54 0 0 0 89.85 56a30 30 0 0 0-1.38-36.64A51.88 51.88 0 0 0 65.4 14.1z"/>
        </g>
        <path class="cls-4" d="M65.4 14.1a51.88 51.88 0 0 1 23.07 5.22A30 30 0 0 1 89.85 56a51.54 51.54 0 0 1-24.45 5.89 51.55 51.55 0 0 1-24.48-6 30 30 0 0 1 1.44-36.59 52.08 52.08 0 0 1 23-5.2m0-2.57A54.7 54.7 0 0 0 41.22 17l-.49.24-.34.42a32.6 32.6 0 0 0-1.57 39.78l.34.49.53.28a54 54 0 0 0 25.71 6.25 54.06 54.06 0 0 0 25.68-6.23l.52-.29.35-.48a32.62 32.62 0 0 0-1.5-39.79l-.34-.42-.49-.25a54.58 54.58 0 0 0-24.22-5.47z"/>
        <g class="cls-17">
          <path class="cls-24" d="M40.25 9.81l1 5.24A73.05 73.05 0 0 0 80.86 67l13 6.35-66.99-3.17 2.89-60.87z"/>
        </g>
        <rect class="cls-4" x="50.49" y="93.29" width="28.02" height="13.17" rx="4.29" ry="4.29"/>
        <path class="cls-25" d="M48.09 116.25h44.49"/>
        <circle class="cls-12" cx="56.35" cy="99.87" r="2.15"/>
        <circle class="cls-12" cx="72.66" cy="99.87" r="2.15"/>
        <circle class="cls-12" cx="64.5" cy="99.87" r="2.15"/>
        <circle class="cls-13" cx="56.35" cy="99.87" r="1.29"/>
        <circle class="cls-13" cx="72.66" cy="99.87" r="1.29"/>
        <circle class="cls-13" cx="64.5" cy="99.87" r="1.29"/>
        <path class="cls-26" d="M72.68 100.27s.27 11.24 20 11.24M56.35 100.2A12 12 0 0 1 48 110.67"/>
        <path class="cls-9" d="M84.08 86.18a6.44 6.44 0 1 1-6.44-6.45 6.44 6.44 0 0 1 6.44 6.45"/>
        <path class="cls-27" d="M84.08 86.18a6.44 6.44 0 1 1-6.44-6.45 6.44 6.44 0 0 1 6.44 6.45m-6.44-4.42a4.42 4.42 0 1 0 4.42 4.42 4.41 4.41 0 0 0-4.42-4.42"/>
        <path class="cls-28" d="M79.62 85.68l.88-1.11h-.91l-.43.55.46.56z"/>
        <path class="cls-29" d="M78 85.12a.56.56 0 0 1 .44.21.58.58 0 0 1 .08.1l.21.26-.21.26a.7.7 0 0 1-.08.1.57.57 0 1 1-.44-.93m-.43 1.75a.66.66 0 0 1-.25-.11 1.24 1.24 0 0 1-.6-1.07 1.28 1.28 0 0 1 2.28-.82l-1.38-2.39-2.53 4.4h2.47m.89 0h1.71-.06a.74.74 0 0 1-.26-.07 1.69 1.69 0 0 1-.66-.53s-.14.18-.26.31a.93.93 0 0 1-.47.3M80.1 88.5v-1.17h.24V88l.3-.31h.27l-.31.32.35.52h-.28l-.24-.37-.09.09v.28h-.24m-1.61 0h-.25v-1.2h.41c.28 0 .48.12.48.38s-.22.39-.51.39h-.13v.4m0-1v.36h.18c.13 0 .22 0 .22-.18s-.09-.19-.23-.18zm.86.39h-.2s0-.3.36-.29c.19 0 .38.06.38.3v.49h-.24s0 .12-.23.13a.31.31 0 0 1-.34-.25.26.26 0 0 1 .14-.24 1.23 1.23 0 0 1 .29-.07c.09 0 .13 0 .13-.07s-.06-.1-.14-.11-.17.13-.17.13m.32.27v-.12h-.13c-.06 0-.19 0-.19.12s.1.11.17.11a.18.18 0 0 0 .18-.17m-4.87.31v-1h.36v-.21h-1v.21h.35v1h.25m.18-.39a.43.43 0 0 1 .42-.48c.46 0 .44.51.44.51h-.63a.21.21 0 0 0 .21.21.18.18 0 0 0 .17-.11h.24a.41.41 0 0 1-.41.28.43.43 0 0 1-.44-.42m.42-.29a.17.17 0 0 0-.18.16h.37a.18.18 0 0 0-.19-.16m1.1.68h.23v-.38a.25.25 0 0 1 .12-.25.19.19 0 0 1 .15 0v-.21h-.06a.2.2 0 0 0-.19.11v-.12h-.22v.84m-.64-.68H76v.43a.25.25 0 0 0 .08.21.4.4 0 0 0 .24 0h.08v-.17h-.14a.09.09 0 0 1 0-.08v-.41h.16v-.16h-.22v-.27H76v.27h-.11v.16m1.4.1h-.21s0-.3.36-.29c.19 0 .38.06.38.3v.49h-.24s0 .12-.23.13a.31.31 0 0 1-.34-.25.25.25 0 0 1 .14-.24 1.21 1.21 0 0 1 .3-.07c.08 0 .12 0 .12-.07s-.06-.1-.14-.11-.16.13-.16.13m.31.27v-.12h-.13c-.06 0-.19 0-.18.12s.09.11.16.11a.19.19 0 0 0 .18-.17M81.32 86.9a.38.38 0 1 1-.38.38.38.38 0 0 1 .38-.38m0 .69a.32.32 0 1 0-.31-.31.31.31 0 0 0 .31.31m-.14-.53h.17c.1 0 .15 0 .15.13a.12.12 0 0 1-.1.12l.11.18h-.09l-.1-.18h-.06v.18h-.08zm.08.19h.06c.05 0 .1 0 .1-.06s0-.07-.1-.07h-.06z"/>
        <path class="cls-30" d="M72.63 85.38a.32.32 0 0 1-.33.32.31.31 0 0 1-.31-.33.32.32 0 0 1 .32-.32.32.32 0 0 1 .32.33M82.69 85.38a.33.33 0 0 0 .33.32.33.33 0 0 0 0-.65.33.33 0 0 0-.32.33"/>
        <path class="cls-9" d="M73.19 88.12l.14.23-.5.53.73-.19.12.19-.49.59h.01l.71-.24.13.21-1.1.33-.12-.18.51-.62-.78.21-.11-.18.75-.88zM74.17 89.52l.19.16-.27.32.36.3.27-.31.19.15-.72.85-.19-.16.31-.36-.36-.31-.31.36-.19-.15.72-.85zM75.34 90.38l.18.1-.09 1.2-.24-.12v-.26l-.38-.2-.19.17-.24-.13zm-.07.33L75 91l.24.12zM76.06 90.94l-.3-.1.06-.2.84.25-.06.21-.3-.09-.26.85-.24-.07.26-.85zM76.93 91.37l-.2-.03.18-.42.22.03-.2.42zM77.83 91.25a.25.25 0 0 0-.18-.08c-.06 0-.16 0-.16.11s.51.08.5.47-.2.36-.43.36a.51.51 0 0 1-.37-.15l.17-.19a.27.27 0 0 0 .22.11c.08 0 .17 0 .17-.11s-.52-.1-.52-.47a.39.39 0 0 1 .43-.36.51.51 0 0 1 .34.13zM79.94 91.55a.91.91 0 0 1-.41.25.58.58 0 1 1-.36-1.11.66.66 0 0 1 .46 0l-.1.23a.36.36 0 0 0-.29 0 .33.33 0 0 0-.21.45.33.33 0 0 0 .43.23.54.54 0 0 0 .21-.13l-.06-.17-.19.06-.07-.21.41-.14zM80.26 90.19a.56.56 0 0 1 .81.16.6.6 0 1 1-.81-.16m.51.79a.34.34 0 0 0 .09-.49.35.35 0 1 0-.58.38.35.35 0 0 0 .49.11M81.2 89.39a.58.58 0 1 1 0 .83.57.57 0 0 1 0-.83m.7.63a.33.33 0 0 0 0-.49.35.35 0 1 0-.47.51.33.33 0 0 0 .5 0M81.7 88.84l.17-.32c.17-.32.44-.51.8-.32a.57.57 0 0 1 .19.81l-.18.35zm.89.2l.06-.11c.11-.2.11-.39-.11-.51a.33.33 0 0 0-.46.19l-.07.12zM73.22 82.17l.3-.29c.16-.16.35-.24.53 0s.11.37 0 .53l-.13.12.3.31L74 83zm.5.17l.12-.12c.06-.06.1-.14 0-.21s-.17 0-.24 0l-.09.09zM74.17 81.32l.37-.23c.19-.11.39-.15.53.07a.28.28 0 0 1 0 .38l.48.25-.25.16-.43-.26-.1.07.24.37-.21.13zm.45.26l.13-.07c.07-.05.17-.12.1-.22s-.15-.05-.22 0l-.14.09zM75.9 80.45a.59.59 0 1 1-.4.73.55.55 0 0 1 .4-.73m.27.9a.33.33 0 0 0 .23-.44.34.34 0 0 0-.44-.24.36.36 0 0 0 .21.68M77.18 80.46l-.32.01-.01-.21.87-.06.02.22-.32.02.05.89-.24.02-.05-.89zM78.18 80.23l.74.12-.03.22-.5-.08-.03.21.47.07-.03.22-.48-.07-.03.22.53.08-.04.23-.77-.12.17-1.1zM80 81a.23.23 0 0 0-.16-.16.36.36 0 0 0-.27.66.23.23 0 0 0 .25 0l.14.22a.48.48 0 0 1-.45 0 .55.55 0 0 1-.33-.76.56.56 0 0 1 .77-.32.47.47 0 0 1 .28.29zM80.81 81.36l-.26-.17.12-.18.72.49-.12.18-.26-.18-.5.74-.2-.14.5-.74zM81.92 82.38a.22.22 0 0 0-.07-.17s-.14-.1-.2 0 .31.41 0 .68a.37.37 0 0 1-.56 0 .51.51 0 0 1-.16-.37h.26a.23.23 0 0 0 .07.22c0 .06.14.1.2 0s-.29-.44 0-.69a.39.39 0 0 1 .56 0 .56.56 0 0 1 .15.33z"/>
        <path class="cls-7" d="M94.61 102.69l-5.84-1.58a2.6 2.6 0 0 0-2 .27 2.55 2.55 0 0 0-1.22 1.62 2.65 2.65 0 0 0 0 1.34 2.76 2.76 0 0 0 .29.66 2.59 2.59 0 0 0 1.63 1.2l10.67 2.58a.9.9 0 0 0 .46 0l.4-.11-2.71-5.67zM18.18 66.85a2.62 2.62 0 0 1 1.59 1.29 2.66 2.66 0 0 1 .2 2L18.15 76v.19l-5.55.65 2.3-8.21a2.63 2.63 0 0 1 1.27-1.61 2.91 2.91 0 0 1 .69-.27 2.62 2.62 0 0 1 1.32.1z"/>
        <path class="cls-7" d="M17.53 76.11l-4.42 5-.17.15A5.42 5.42 0 0 1 5.4 80l-3.95-5.6a.93.93 0 0 1-.16-.72.94.94 0 0 1 .39-.62l9-6.33a.76.76 0 0 1 .33-.15A1 1 0 0 1 12 67l5.63 8a1 1 0 0 1-.1 1.11z"/>
        <path class="cls-31" d="M15.29 81.1l-5.5-6.22"/>
        <path class="cls-7" d="M6.11 77a2.33 2.33 0 0 1-3.24-.57L.42 72.94A2.34 2.34 0 0 1 1 69.69a2.5 2.5 0 0 1 .8-.36 2.34 2.34 0 0 1 2.44.94l2.46 3.47A2.33 2.33 0 0 1 6.11 77z"/>
        <path class="cls-7" d="M9 73.42a2.31 2.31 0 0 1-1 1.5 2.33 2.33 0 0 1-3.24-.58l-2.45-3.47a2.34 2.34 0 0 1 .59-3.25 2.15 2.15 0 0 1 .79-.35 2.53 2.53 0 0 1 .95 0 2.38 2.38 0 0 1 1.5 1l2.45 3.47A2.31 2.31 0 0 1 9 73.42z"/>
        <path class="cls-7" d="M9.78 72.68a2.35 2.35 0 0 1-3.25-.58l-2.45-3.47a2.33 2.33 0 0 1 .59-3.25 2.23 2.23 0 0 1 .79-.38 2.34 2.34 0 0 1 2.45 1l2.45 3.47a2.34 2.34 0 0 1-.58 3.21z"/>
        <path class="cls-7" d="M12.7 69.2a2.33 2.33 0 0 1-4.21.92L6 66.66a2.33 2.33 0 0 1 .59-3.25A2.25 2.25 0 0 1 8.37 63a2.28 2.28 0 0 1 1.5 1l2.45 3.47a2.29 2.29 0 0 1 .38 1.73zM93.24 118.7l5.35-4.08a5.34 5.34 0 0 0 1-7.47.75.75 0 0 0-.15-.16l-5.09-4.17a1 1 0 0 0-1.18 0l-7.63 5.81a1 1 0 0 0-.34 1 1.37 1.37 0 0 0 .16.32l6.55 8.58a.93.93 0 0 0 .62.36 1 1 0 0 0 .71-.19z"/>
        <path class="cls-31" d="M93.01 110.97l7.47-6.95"/>
        <path class="cls-7" d="M91.84 119.76l3.31-2.52a2.32 2.32 0 0 0 .9-1.51 2.28 2.28 0 0 0-.44-1.71 2.22 2.22 0 0 0-1.51-.89 2.25 2.25 0 0 0-1.71.44l-3.31 2.52a2.3 2.3 0 0 0-.84 2.45 2.41 2.41 0 0 0 .38.77 2.3 2.3 0 0 0 3.22.45z"/>
        <path class="cls-7" d="M89.74 118l3.31-2.52a2.3 2.3 0 1 0-2.76-3.67L87 114.3a2.3 2.3 0 0 0-.84 2.45 2.41 2.41 0 0 0 .38.77 2.3 2.3 0 0 0 3.2.48z"/>
        <path class="cls-7" d="M87.47 116.31l3.31-2.53a2.24 2.24 0 0 0 .9-1.51 2.29 2.29 0 0 0-3.68-2.16l-3.31 2.53a2.3 2.3 0 0 0-.84 2.45 2.24 2.24 0 0 0 .37.76 2.3 2.3 0 0 0 3.25.46z"/>
        <path class="cls-7" d="M85.46 114.45l3.31-2.52a2.3 2.3 0 1 0-2.77-3.67l-3.31 2.52a2.34 2.34 0 0 0-.84 2.45 2.63 2.63 0 0 0 .38.77 2.27 2.27 0 0 0 1.51.89 2.24 2.24 0 0 0 1.72-.44z"/>
        <path class="cls-32" d="M110.53 35.75V1.72"/>
        <circle class="cls-12" cx="110.53" cy="1.72" r="1.72"/>
        <path class="cls-8" d="M106.69 27.61h5.75a4 4 0 0 1 4 4v13.94a4 4 0 0 1-4 4h-5.75V27.61z"/>
        <circle class="cls-12" cx="111.56" cy="34.36" r="2.15"/>
        <circle class="cls-12" cx="111.56" cy="42.8" r="2.15"/>
        <circle class="cls-13" cx="111.56" cy="34.36" r="1.29"/>
        <circle class="cls-13" cx="111.56" cy="42.8" r="1.29"/>
      </g>
    </g>
  </g>
</svg>
